<mxfile host="app.diagrams.net" modified="2023-10-19T09:37:18.693Z" agent="Mozilla/5.0 (X11; Linux x86_64; rv:109.0) Gecko/20100101 Firefox/114.0" etag="tn8-xdtVvY407n9LqRnw" version="21.6.6" type="github">
  <diagram name="第 1 页" id="e2uv00AAZcbPJ5dO1Pah">
    <mxGraphModel dx="2074" dy="1078" grid="1" gridSize="10" guides="1" tooltips="1" connect="1" arrows="1" fold="1" page="1" pageScale="1" pageWidth="827" pageHeight="1169" math="0" shadow="0">
      <root>
        <mxCell id="0" />
        <mxCell id="1" parent="0" />
        <mxCell id="zwk_ola657jVoU6oGdOF-3" value="" style="edgeStyle=orthogonalEdgeStyle;rounded=0;orthogonalLoop=1;jettySize=auto;html=1;" edge="1" parent="1" source="zwk_ola657jVoU6oGdOF-1" target="zwk_ola657jVoU6oGdOF-2">
          <mxGeometry relative="1" as="geometry" />
        </mxCell>
        <mxCell id="zwk_ola657jVoU6oGdOF-1" value="已登录并选择患者" style="rounded=0;whiteSpace=wrap;html=1;" vertex="1" parent="1">
          <mxGeometry x="320" y="150" width="120" height="60" as="geometry" />
        </mxCell>
        <mxCell id="zwk_ola657jVoU6oGdOF-5" value="" style="edgeStyle=orthogonalEdgeStyle;rounded=0;orthogonalLoop=1;jettySize=auto;html=1;" edge="1" parent="1" source="zwk_ola657jVoU6oGdOF-2" target="zwk_ola657jVoU6oGdOF-4">
          <mxGeometry relative="1" as="geometry" />
        </mxCell>
        <mxCell id="zwk_ola657jVoU6oGdOF-2" value="点击系统配置" style="whiteSpace=wrap;html=1;rounded=0;" vertex="1" parent="1">
          <mxGeometry x="320" y="230" width="120" height="60" as="geometry" />
        </mxCell>
        <mxCell id="zwk_ola657jVoU6oGdOF-10" value="" style="edgeStyle=orthogonalEdgeStyle;rounded=0;orthogonalLoop=1;jettySize=auto;html=1;" edge="1" parent="1" source="zwk_ola657jVoU6oGdOF-4" target="zwk_ola657jVoU6oGdOF-9">
          <mxGeometry relative="1" as="geometry" />
        </mxCell>
        <mxCell id="zwk_ola657jVoU6oGdOF-19" value="" style="edgeStyle=orthogonalEdgeStyle;rounded=0;orthogonalLoop=1;jettySize=auto;html=1;" edge="1" parent="1" source="zwk_ola657jVoU6oGdOF-4" target="zwk_ola657jVoU6oGdOF-18">
          <mxGeometry relative="1" as="geometry" />
        </mxCell>
        <mxCell id="zwk_ola657jVoU6oGdOF-20" value="等待3s" style="edgeLabel;html=1;align=center;verticalAlign=middle;resizable=0;points=[];" vertex="1" connectable="0" parent="zwk_ola657jVoU6oGdOF-19">
          <mxGeometry x="-0.025" y="-3" relative="1" as="geometry">
            <mxPoint as="offset" />
          </mxGeometry>
        </mxCell>
        <mxCell id="zwk_ola657jVoU6oGdOF-4" value="点击扫描" style="whiteSpace=wrap;html=1;rounded=0;" vertex="1" parent="1">
          <mxGeometry x="320" y="330" width="120" height="60" as="geometry" />
        </mxCell>
        <mxCell id="zwk_ola657jVoU6oGdOF-7" style="edgeStyle=orthogonalEdgeStyle;rounded=0;orthogonalLoop=1;jettySize=auto;html=1;entryX=0.5;entryY=0;entryDx=0;entryDy=0;exitX=0.5;exitY=1;exitDx=0;exitDy=0;" edge="1" parent="1" source="zwk_ola657jVoU6oGdOF-6" target="zwk_ola657jVoU6oGdOF-4">
          <mxGeometry relative="1" as="geometry" />
        </mxCell>
        <mxCell id="zwk_ola657jVoU6oGdOF-6" value="已打开主机" style="shape=manualInput;whiteSpace=wrap;html=1;" vertex="1" parent="1">
          <mxGeometry x="480" y="210" width="80" height="80" as="geometry" />
        </mxCell>
        <mxCell id="zwk_ola657jVoU6oGdOF-12" value="" style="edgeStyle=orthogonalEdgeStyle;rounded=0;orthogonalLoop=1;jettySize=auto;html=1;" edge="1" parent="1" source="zwk_ola657jVoU6oGdOF-9" target="zwk_ola657jVoU6oGdOF-11">
          <mxGeometry relative="1" as="geometry" />
        </mxCell>
        <mxCell id="zwk_ola657jVoU6oGdOF-9" value="调用蓝牙扫描" style="whiteSpace=wrap;html=1;rounded=0;" vertex="1" parent="1">
          <mxGeometry x="320" y="410" width="120" height="60" as="geometry" />
        </mxCell>
        <mxCell id="zwk_ola657jVoU6oGdOF-14" value="" style="edgeStyle=orthogonalEdgeStyle;rounded=0;orthogonalLoop=1;jettySize=auto;html=1;" edge="1" parent="1" source="zwk_ola657jVoU6oGdOF-11" target="zwk_ola657jVoU6oGdOF-13">
          <mxGeometry relative="1" as="geometry" />
        </mxCell>
        <mxCell id="zwk_ola657jVoU6oGdOF-16" value="是" style="edgeLabel;html=1;align=center;verticalAlign=middle;resizable=0;points=[];" vertex="1" connectable="0" parent="zwk_ola657jVoU6oGdOF-14">
          <mxGeometry x="-0.4444" y="5" relative="1" as="geometry">
            <mxPoint as="offset" />
          </mxGeometry>
        </mxCell>
        <mxCell id="zwk_ola657jVoU6oGdOF-33" style="edgeStyle=orthogonalEdgeStyle;rounded=0;orthogonalLoop=1;jettySize=auto;html=1;entryX=0;entryY=0.5;entryDx=0;entryDy=0;" edge="1" parent="1" source="zwk_ola657jVoU6oGdOF-11" target="zwk_ola657jVoU6oGdOF-4">
          <mxGeometry relative="1" as="geometry">
            <Array as="points">
              <mxPoint x="300" y="545" />
              <mxPoint x="300" y="360" />
            </Array>
          </mxGeometry>
        </mxCell>
        <mxCell id="zwk_ola657jVoU6oGdOF-34" value="否" style="edgeLabel;html=1;align=center;verticalAlign=middle;resizable=0;points=[];" vertex="1" connectable="0" parent="zwk_ola657jVoU6oGdOF-33">
          <mxGeometry x="-0.1184" y="-5" relative="1" as="geometry">
            <mxPoint as="offset" />
          </mxGeometry>
        </mxCell>
        <mxCell id="zwk_ola657jVoU6oGdOF-11" value="查询到数据" style="rhombus;whiteSpace=wrap;html=1;rounded=0;" vertex="1" parent="1">
          <mxGeometry x="340" y="505" width="80" height="80" as="geometry" />
        </mxCell>
        <mxCell id="zwk_ola657jVoU6oGdOF-22" value="" style="edgeStyle=orthogonalEdgeStyle;rounded=0;orthogonalLoop=1;jettySize=auto;html=1;" edge="1" parent="1" source="zwk_ola657jVoU6oGdOF-13" target="zwk_ola657jVoU6oGdOF-21">
          <mxGeometry relative="1" as="geometry" />
        </mxCell>
        <mxCell id="zwk_ola657jVoU6oGdOF-13" value="推送设备信息前端显示" style="whiteSpace=wrap;html=1;rounded=0;" vertex="1" parent="1">
          <mxGeometry x="320" y="620" width="120" height="60" as="geometry" />
        </mxCell>
        <mxCell id="zwk_ola657jVoU6oGdOF-18" value="停止扫描" style="whiteSpace=wrap;html=1;rounded=0;" vertex="1" parent="1">
          <mxGeometry x="460" y="410" width="120" height="60" as="geometry" />
        </mxCell>
        <mxCell id="zwk_ola657jVoU6oGdOF-37" value="" style="edgeStyle=orthogonalEdgeStyle;rounded=0;orthogonalLoop=1;jettySize=auto;html=1;" edge="1" parent="1" source="zwk_ola657jVoU6oGdOF-21" target="zwk_ola657jVoU6oGdOF-36">
          <mxGeometry relative="1" as="geometry" />
        </mxCell>
        <mxCell id="zwk_ola657jVoU6oGdOF-21" value="点击未连接按钮" style="whiteSpace=wrap;html=1;rounded=0;" vertex="1" parent="1">
          <mxGeometry x="320" y="700" width="120" height="60" as="geometry" />
        </mxCell>
        <mxCell id="zwk_ola657jVoU6oGdOF-26" value="" style="edgeStyle=orthogonalEdgeStyle;rounded=0;orthogonalLoop=1;jettySize=auto;html=1;" edge="1" parent="1" source="zwk_ola657jVoU6oGdOF-23" target="zwk_ola657jVoU6oGdOF-25">
          <mxGeometry relative="1" as="geometry" />
        </mxCell>
        <mxCell id="zwk_ola657jVoU6oGdOF-27" value="否" style="edgeLabel;html=1;align=center;verticalAlign=middle;resizable=0;points=[];" vertex="1" connectable="0" parent="zwk_ola657jVoU6oGdOF-26">
          <mxGeometry x="0.1333" y="-2" relative="1" as="geometry">
            <mxPoint as="offset" />
          </mxGeometry>
        </mxCell>
        <mxCell id="zwk_ola657jVoU6oGdOF-29" value="" style="edgeStyle=orthogonalEdgeStyle;rounded=0;orthogonalLoop=1;jettySize=auto;html=1;" edge="1" parent="1" source="zwk_ola657jVoU6oGdOF-23" target="zwk_ola657jVoU6oGdOF-28">
          <mxGeometry relative="1" as="geometry" />
        </mxCell>
        <mxCell id="zwk_ola657jVoU6oGdOF-30" value="是" style="edgeLabel;html=1;align=center;verticalAlign=middle;resizable=0;points=[];" vertex="1" connectable="0" parent="zwk_ola657jVoU6oGdOF-29">
          <mxGeometry x="-0.4222" y="5" relative="1" as="geometry">
            <mxPoint as="offset" />
          </mxGeometry>
        </mxCell>
        <mxCell id="zwk_ola657jVoU6oGdOF-23" value="是否链接" style="rhombus;whiteSpace=wrap;html=1;rounded=0;" vertex="1" parent="1">
          <mxGeometry x="340" y="880" width="80" height="80" as="geometry" />
        </mxCell>
        <mxCell id="zwk_ola657jVoU6oGdOF-25" value="返回错误信息" style="whiteSpace=wrap;html=1;rounded=0;" vertex="1" parent="1">
          <mxGeometry x="460" y="890" width="120" height="60" as="geometry" />
        </mxCell>
        <mxCell id="zwk_ola657jVoU6oGdOF-32" value="" style="edgeStyle=orthogonalEdgeStyle;rounded=0;orthogonalLoop=1;jettySize=auto;html=1;" edge="1" parent="1" source="zwk_ola657jVoU6oGdOF-28" target="zwk_ola657jVoU6oGdOF-31">
          <mxGeometry relative="1" as="geometry" />
        </mxCell>
        <mxCell id="zwk_ola657jVoU6oGdOF-28" value="更新设备状态，并获取设备电量、通道、采样率信息" style="whiteSpace=wrap;html=1;rounded=0;" vertex="1" parent="1">
          <mxGeometry x="320" y="990" width="120" height="60" as="geometry" />
        </mxCell>
        <mxCell id="zwk_ola657jVoU6oGdOF-31" value="推送设备信息更新前端状态" style="whiteSpace=wrap;html=1;rounded=0;" vertex="1" parent="1">
          <mxGeometry x="320" y="1090" width="120" height="60" as="geometry" />
        </mxCell>
        <mxCell id="zwk_ola657jVoU6oGdOF-38" style="edgeStyle=orthogonalEdgeStyle;rounded=0;orthogonalLoop=1;jettySize=auto;html=1;entryX=0.5;entryY=0;entryDx=0;entryDy=0;" edge="1" parent="1" source="zwk_ola657jVoU6oGdOF-36" target="zwk_ola657jVoU6oGdOF-23">
          <mxGeometry relative="1" as="geometry" />
        </mxCell>
        <mxCell id="zwk_ola657jVoU6oGdOF-36" value="调用蓝牙链接" style="whiteSpace=wrap;html=1;rounded=0;" vertex="1" parent="1">
          <mxGeometry x="320" y="780" width="120" height="60" as="geometry" />
        </mxCell>
      </root>
    </mxGraphModel>
  </diagram>
</mxfile>
